Coordinates
version=1
nRows=16
nColumns=36
inDegrees=yes

Units are S.I. units (second, meters, Newtons, ...)
If the header above contains a line with 'inDegrees', this indicates whether rotational values are in degrees (yes) or radians (no).

endheader
time	pelvis_tilt	pelvis_list	pelvis_rotation	pelvis_tx	pelvis_ty	pelvis_tz	hip_flexion_r	hip_adduction_r	hip_rotation_r	knee_angle_r	knee_angle_r_beta	ankle_angle_r	subtalar_angle_r	mtp_angle_r	hip_flexion_l	hip_adduction_l	hip_rotation_l	knee_angle_l	knee_angle_l_beta	ankle_angle_l	subtalar_angle_l	mtp_angle_l	lumbar_extension	lumbar_bending	lumbar_rotation	arm_flex_r	arm_add_r	arm_rot_r	elbow_flex_r	pro_sup_r	arm_flex_l	arm_add_l	arm_rot_l	elbow_flex_l	pro_sup_l
      1.47083330	    -28.63961839	      0.15254011	      0.91934579	     -0.97000677	      1.22801324	     -0.09515414	     46.97882919	     -2.06166347	      3.04396751	     37.76504806	      0.65912443	     21.57316532	    -17.29792738	     -7.49999987	     50.37875106	      0.58045441	      2.66895609	     42.05225801	      0.73395036	     16.17426096	     -6.74225153	     -7.49999987	    -11.42215715	      0.53192339	     -2.51234473	    -45.55895420	    -25.89793420	      3.37385435	     53.96726870	     72.21937053	    -48.50848234	    -26.31282822	      0.72830909	     51.80787501	     56.06695287
      1.47500000	    -28.63346421	     -0.00115608	      1.01695601	     -0.97005226	      1.22709045	     -0.09470229	     47.21535132	     -1.95823395	      2.92543550	     38.36243487	      0.66955080	     21.58287229	    -17.80756438	     -7.49999987	     50.80236221	      0.57219318	      3.03268489	     42.80584594	      0.74710295	     16.29784108	     -6.97968804	     -7.49999987	    -11.96881320	      0.73225401	     -2.28703632	    -45.82505407	    -25.61904624	      3.25632411	     54.49422148	     71.60633743	    -48.80693089	    -26.47463910	      0.28862063	     52.24977659	     56.18758277
      1.47916670	    -29.16427207	     -0.15575657	      0.99087841	     -0.96929872	      1.22310710	     -0.09485091	     47.95196100	     -1.82034502	      2.87919549	     38.78622549	      0.67694734	     21.94362168	    -17.58893395	     -7.49999987	     51.71356086	      0.55388535	      3.31815062	     43.63639337	      0.76159874	     16.52406542	     -7.26199984	     -7.49999987	    -11.82593978	      1.18283551	     -2.08273369	    -45.81314874	    -24.95410522	      2.02451514	     53.46406183	     70.71861493	    -48.59112200	    -25.71194962	     -1.22870168	     51.34138078	     56.10060893
      1.48333330	    -29.47088935	     -0.19355287	      0.64899297	     -0.96920674	      1.21824616	     -0.09408939	     48.66452322	     -1.55480217	      3.01659622	     39.56044965	      0.69046010	     22.61254175	    -17.51911059	     -7.49999987	     52.68031930	      0.35633078	      3.32725591	     45.00956782	      0.78556515	     17.01699839	     -7.58542676	     -7.49999987	    -12.32709703	      1.48574908	     -1.85274957	    -46.19252792	    -24.91542954	      1.57789769	     54.06349617	     69.78404798	    -49.08057015	    -25.27923179	     -1.57047981	     52.28139177	     56.33236568
      1.48750000	    -30.26006191	     -0.36255957	      0.32785848	     -0.96816378	      1.21776246	     -0.09409227	     49.58548948	     -1.21376439	      3.14325342	     39.70565032	      0.69299433	     22.53599629	    -17.61578946	     -7.49999987	     54.06988872	      0.17624703	      3.72385340	     46.27450729	      0.80764251	     16.98342265	     -8.41709791	     -7.49999987	    -11.81876620	      1.87865057	     -1.69470956	    -46.21371859	    -24.49398016	      0.53156088	     53.17740052	     69.17198273	    -49.30202671	    -24.33858811	     -2.51625336	     51.63784296	     56.25300449
      1.49166670	    -30.28363935	     -0.39435738	     -0.04886538	     -0.96827985	      1.21342512	     -0.09379079	     50.12362724	     -0.87590445	      3.42538153	     40.61588303	      0.70888089	     22.84040976	    -18.06287531	     -7.49999987	     54.59857939	      0.01501613	      3.83155673	     47.44085643	      0.82799914	     17.39547305	     -8.88645945	     -7.49999987	    -12.14523454	      2.00049457	     -1.28973116	    -46.28417308	    -24.38481715	      0.24555693	     53.25123887	     68.67225227	    -49.41451759	    -23.97517402	     -2.73243693	     52.05599338	     56.35019711
      1.49583330	    -31.23353382	     -0.47731925	     -0.38631322	     -0.96759091	      1.20930229	     -0.09366385	     51.48769110	     -0.47076244	      3.71797556	     41.30185571	      0.72085337	     22.34170876	    -19.04885234	     -7.49999987	     55.89705988	     -0.17622152	      3.90084923	     48.29041462	      0.84282673	     17.57476564	     -9.46106037	     -7.49999987	    -11.36428485	      2.19771103	     -0.98045506	    -45.82900870	    -23.81250306	     -0.57814419	     51.87105199	     68.36412242	    -49.13718845	    -23.19010200	     -3.46661780	     51.19501413	     56.10885754
      1.50000000	    -31.34027555	     -0.47761908	     -0.37336945	     -0.96171002	      1.20873334	     -0.09829952	     51.56872416	     -0.53563828	      3.87939808	     41.57472936	      0.72561591	     22.46592806	    -19.16676805	     -7.49999987	     56.03408492	      0.09468247	      4.14490373	     48.73965520	      0.85066746	     17.84353640	     -9.68082584	     -7.49999987	    -11.37193534	      2.43727594	     -0.75509262	    -45.77220446	    -23.63896770	     -0.61641938	     51.52906285	     68.36099287	    -49.07677406	    -22.54415165	     -3.30555527	     51.12245997	     56.08511753
      1.50416670	    -32.28083293	     -0.83397055	     -0.38775772	     -0.96177203	      1.20108224	     -0.09885388	     52.56923642	     -0.35208451	      3.69742225	     41.89893305	      0.73127433	     22.71649437	    -19.41543048	     -7.49999987	     57.30583106	      0.16156311	      4.77129041	     49.61425165	      0.86593205	     18.23612609	    -10.20875647	     -7.49999987	    -10.32314033	      3.17773329	     -0.68307627	    -45.68308332	    -23.43937434	     -1.43144413	     49.86607189	     67.36498084	    -49.37767581	    -21.72368348	     -3.70859593	     50.26790548	     56.05865542
      1.50833330	    -32.54694775	     -0.76739595	     -0.62773183	     -0.96848378	      1.20111135	     -0.09346758	     53.21507957	     -0.11531212	      3.96690485	     42.61416893	      0.74375756	     22.98336796	    -19.47896834	     -7.49999987	     57.96672013	     -0.00423390	      4.66781916	     50.17494769	      0.87571804	     18.42123552	    -10.31406504	     -7.49999987	    -10.64224942	      3.13998084	     -0.53306124	    -45.08824491	    -23.29709424	     -1.47595566	     49.69500309	     67.39365025	    -48.96550778	    -21.54849877	     -3.69608872	     50.05459979	     55.96749946
      1.51250000	    -33.33531408	     -0.79601810	     -0.60756271	     -0.96807897	      1.20084036	     -0.09373491	     54.23393243	      0.00660482	      3.95151776	     42.91082186	      0.74893513	     23.25708749	    -19.57180393	     -7.49999987	     59.17079848	      0.04079605	      4.92776745	     50.64497593	      0.88392158	     18.43906847	    -10.45492725	     -7.49999987	    -10.12133752	      3.18476650	     -0.25417495	    -44.61049052	    -22.62498895	     -1.84131321	     48.36084638	     67.08682127	    -48.18744517	    -21.53352612	     -3.55654627	     49.77201285	     55.73008908
      1.51666670	    -33.81334984	     -0.87010057	     -0.55331522	     -0.96867175	      1.19642758	     -0.09342161	     55.01894876	      0.12250481	      3.88089351	     43.46650267	      0.75863359	     23.26933145	    -20.21292216	     -7.49999987	     60.11081457	      0.05561139	      5.04540664	     51.31257720	      0.89557342	     18.84846480	    -10.41725369	     -7.49999987	    -10.17933880	      3.23392844	      0.15128840	    -44.51081866	    -21.97062710	     -2.37027014	     47.79217901	     66.90215322	    -47.18388457	    -21.65151870	     -3.11254620	     49.64163718	     55.42828891
      1.52083330	    -34.10689391	     -0.75889325	     -0.79529494	     -0.97438229	      1.19276506	     -0.08862034	     56.31370092	      0.48116515	      4.18039056	     44.93418316	      0.78424944	     23.66700389	    -20.42062482	     -7.49999987	     60.94949957	     -0.21829250	      4.91164100	     52.04891588	      0.90842495	     19.16473944	    -10.57671195	     -7.49999987	    -10.67367595	      2.82282108	      0.26462188	    -44.07003888	    -21.57415642	     -2.61227289	     47.68019746	     66.95612862	    -46.86968772	    -21.86361188	     -3.02630692	     49.85555714	     55.21305782
      1.52500000	    -34.23650379	     -0.82293632	     -0.70580724	     -0.96845649	      1.19196686	     -0.09348583	     56.82610925	      0.52897664	      4.25982494	     45.82790691	      0.79984786	     23.77573260	    -20.48330712	     -7.49999987	     61.22812220	     -0.12404550	      5.02181209	     52.50241223	      0.91633996	     19.47898235	    -10.74646516	     -7.49999987	    -10.99779369	      2.76263881	      0.12802809	    -43.74698405	    -21.35374513	     -2.69071409	     47.52269575	     66.94229373	    -45.96928974	    -21.31365574	     -2.85342246	     50.18912161	     55.19954711
      1.52916670	    -34.68453737	     -0.77725965	     -0.59585833	     -0.96808253	      1.18836785	     -0.09398691	     57.58682900	      0.38059917	      4.29549246	     46.62232197	      0.81371302	     24.32874652	    -20.23071591	     -7.49999987	     61.80052281	      0.02399946	      4.99465986	     52.86394693	      0.92264993	     19.75387690	    -10.89652564	     -7.49999987	    -10.71867166	      2.48987157	      0.26816017	    -43.55595078	    -20.61995366	     -3.34431481	     46.45514369	     66.68566131	    -45.44189654	    -21.19040496	     -2.66886544	     50.17018160	     55.13957856
      1.53333330	    -34.55684699	     -0.74337569	     -0.62226082	     -0.96877244	      1.18470043	     -0.09370842	     57.82075538	      0.38591143	      4.43734282	     47.36855550	      0.82673726	     24.94200786	    -19.97931234	     -7.49999987	     61.97903831	     -0.02725188	      4.74699090	     53.62603728	      0.93595092	     20.21523581	    -10.86357989	     -7.49999987	    -11.17509179	      2.45502951	      0.18137948	    -43.85262998	    -20.72543060	     -3.46871618	     47.13777774	     66.34157535	    -45.46517517	    -20.95235790	     -2.55573394	     50.92431841	     55.35495406
